<svg width="890" height="171" viewBox="0 0 890 171" fill="none" xmlns="http://www.w3.org/2000/svg">
<path d="M160.766 0.181641H73.4016C73.4016 0.181641 0 3.24172 0 85.479C0 167.716 73.4016 170.878 73.4016 170.878L160.766 170.979V124.409H95.7544C95.7544 124.409 56.9662 123.72 56.9662 85.479C56.9662 47.2381 95.7544 46.549 95.7544 46.549H160.786V0.181641H160.766Z" fill="#1796B5"/>
<path d="M365.09 0.22168H463.843C480.299 0.22168 492.924 4.29504 501.76 12.4418C510.555 20.5885 514.973 30.701 514.973 42.7184C514.973 52.8106 511.832 61.4639 505.55 68.6784C501.355 73.5016 495.235 77.2913 487.149 80.0879C499.409 83.0467 508.428 88.113 514.223 95.287C519.999 102.481 522.897 111.499 522.897 122.362C522.897 131.218 520.85 139.162 516.736 146.234C512.623 153.307 506.989 158.88 499.855 162.994C495.437 165.568 488.75 167.412 479.833 168.587C467.937 170.148 460.054 170.918 456.183 170.918H365.11V0.22168H365.09ZM418.307 67.1788H441.247C449.475 67.1788 455.21 65.7602 458.433 62.9231C461.655 60.1062 463.256 55.9923 463.256 50.6422C463.256 45.6771 461.635 41.7862 458.433 38.9895C455.21 36.1929 449.597 34.7946 441.612 34.7946H418.327V67.1788H418.307ZM418.307 134.258H445.199C454.298 134.258 460.682 132.636 464.411 129.414C468.14 126.192 470.004 121.855 470.004 116.424C470.004 111.378 468.16 107.325 464.472 104.265C460.783 101.205 454.319 99.6644 445.098 99.6644H418.327V134.258H418.307Z" fill="#1796B5"/>
<path d="M300.286 0L350.97 0.0810619V100.091C350.97 110.001 349.268 119.364 345.863 128.179C342.479 136.995 337.858 144.331 330.603 150.917C323.328 157.524 312.77 162.529 304.785 165.184C293.68 168.913 277.933 170.797 262.39 170.797C246.846 170.797 227.493 167.899 219.994 165.184C210.145 161.658 201.188 157.057 194.359 150.917C186.556 143.885 181.267 134.806 179.078 128.179C175.552 117.499 173.789 110.406 173.789 100.091V0.101327L224.473 45.4555V94.6195C224.473 105.603 227.817 114.196 234.525 120.357C241.253 126.538 250.555 129.618 262.451 129.618C274.346 129.618 283.506 126.578 290.214 120.499C296.942 114.419 300.286 105.786 300.286 94.6195V0V0Z" fill="#1796B5"/>
<path d="M698.36 42.4156C693.719 32.4856 686.586 23.9335 677.163 17.0635C669.158 11.2068 659.673 6.7484 648.973 3.80991C639.631 1.23619 629.579 0 618.231 0C606.882 0 596.668 1.25646 587.326 3.80991C576.666 6.7484 567.243 11.2068 559.299 17.0635C549.693 23.9943 542.255 32.9517 537.756 42.9831C534.007 51.3527 532.082 60.229 532.082 69.3687V101.591C532.082 110.791 533.987 119.728 537.736 128.078C542.235 138.129 549.672 147.067 559.278 154.018C567.344 159.955 576.909 164.434 587.731 167.332C596.932 169.784 606.902 170.98 618.21 170.98C629.518 170.98 639.327 169.784 648.548 167.332C659.39 164.434 669.016 159.955 677.122 154.038C686.586 147.148 693.719 138.596 698.34 128.686C702.332 120.134 704.339 111.035 704.339 101.611V69.389C704.339 60.0466 702.312 50.9879 698.34 42.4359L698.36 42.4156ZM654.04 102.705C654.04 106.13 653.411 109.353 652.135 112.372C650.858 115.392 648.852 118.006 646.116 120.195C643.279 122.485 639.712 124.248 635.416 125.504C631.119 126.761 625.931 127.409 619.892 127.409C613.853 127.409 608.523 126.781 604.227 125.504C599.931 124.248 596.405 122.464 593.669 120.195C590.832 117.986 588.805 115.392 587.569 112.372C586.353 109.353 585.725 106.13 585.725 102.705V68.2338C585.725 64.89 586.333 61.7084 587.569 58.6888C588.805 55.6693 590.832 53.055 593.669 50.8663C596.405 48.5763 599.931 46.793 604.227 45.496C608.523 44.199 613.752 43.5302 619.892 43.5302C626.033 43.5302 631.119 44.1787 635.416 45.496C639.712 46.793 643.279 48.5966 646.116 50.8663C648.852 53.0753 650.858 55.6693 652.135 58.6888C653.411 61.7084 654.04 64.89 654.04 68.2338V102.705V102.705Z" fill="#1796B5"/>
<path d="M701.512 0.181641H763.2L795.726 59.5797L830.927 0.181641H889.92L841.546 85.5803L889.92 170.999H830.501L795.726 112.189L761.335 170.999H701.512L750.737 85.5803L701.512 0.181641Z" fill="#1796B5"/>
</svg>
